# xmcd
#
# Track frame offsets: 
#        150
#        60339
#        89790
#        159494
#        179622
#        220078
#        239968
#
# Disc length: 3419 seconds
#
# Revision: 2
# Processed by: cddbd v1.5.2PL0 Copyright (c) Steve Scherf et al.
# Submitted via: ExactAudioCopy v1.0b1
#
DISCID=650d5907
DTITLE=Orchestre de la Soci'et'e des Concerts du Conservatoire and Andre
DTITLE=Cluytens - Berlioz‧Symphonie fantastique
DYEAR=2000
DGENRE=Classical
TTITLE0=Berlioz‧Symphonie fantastique Op.14：I. Reveries–Passions. Larg
TTITLE0=o–allegro agitato e appassionato assai
TTITLE1=Berlioz‧Symphonie fantastique Op.14：II. Un bal. Valse. Allegro
TTITLE1=non troppo
TTITLE2=Berlioz‧Symphonie fantastique Op.14：III. Scene aux champs. Ada
TTITLE2=gio
TTITLE3=Berlioz‧Symphonie fantastique Op.14：IV. Marche au supplice. Al
TTITLE3=legreto non troppo
TTITLE4=Berlioz‧Symphonie fantastique Op.14：V. Songe d'une nuit du sab
TTITLE4=bat. Larghetto–allegro dies irae ronde du sabbat
TTITLE5=Moussorgsky‧"II Vecchio Castello"
TTITLE6=Bizet‧"Farandole"
EXTD=YEAR: 1964 ID3G: 32
EXTT0=
EXTT1=
EXTT2=
EXTT3=
EXTT4=
EXTT5=
EXTT6=
PLAYORDER=
